solid OpenSCAD_Model
  facet normal -0 0 -1
    outer loop
      vertex 3 1 0
      vertex 0 0 0
      vertex 2.80397 1.00963 0
    endloop
  endfacet
  facet normal 0 0 -1
    outer loop
      vertex 3 1 0
      vertex 25 1 0
      vertex 25 0 0
    endloop
  endfacet
  facet normal -0 0 -1
    outer loop
      vertex 2.80397 1.00963 0
      vertex 0 0 0
      vertex 2.60982 1.03844 0
    endloop
  endfacet
  facet normal 0 -0 -1
    outer loop
      vertex 3 1 0
      vertex 25 0 0
      vertex 0 0 0
    endloop
  endfacet
  facet normal -0 0 -1
    outer loop
      vertex 2.60982 1.03844 0
      vertex 0 0 0
      vertex 2.41943 1.08612 0
    endloop
  endfacet
  facet normal -0 0 -1
    outer loop
      vertex 2.41943 1.08612 0
      vertex 0 0 0
      vertex 2.23463 1.15224 0
    endloop
  endfacet
  facet normal -0 0 -1
    outer loop
      vertex 2.23463 1.15224 0
      vertex 0 0 0
      vertex 2.05721 1.23616 0
    endloop
  endfacet
  facet normal -0 0 -1
    outer loop
      vertex 2.05721 1.23616 0
      vertex 0 0 0
      vertex 1.88885 1.33707 0
    endloop
  endfacet
  facet normal -0 0 -1
    outer loop
      vertex 1.88885 1.33707 0
      vertex 0 0 0
      vertex 1.73122 1.45398 0
    endloop
  endfacet
  facet normal -0 0 -1
    outer loop
      vertex 1.73122 1.45398 0
      vertex 0 0 0
      vertex 1.58578 1.58578 0
    endloop
  endfacet
  facet normal -0 0 -1
    outer loop
      vertex 1.58578 1.58578 0
      vertex 0 0 0
      vertex 1.45398 1.73122 0
    endloop
  endfacet
  facet normal -0 0 -1
    outer loop
      vertex 1.45398 1.73122 0
      vertex 0 0 0
      vertex 1.33707 1.88885 0
    endloop
  endfacet
  facet normal -0 0 -1
    outer loop
      vertex 1.33707 1.88885 0
      vertex 0 0 0
      vertex 1.23616 2.05721 0
    endloop
  endfacet
  facet normal -0 0 -1
    outer loop
      vertex 1.23616 2.05721 0
      vertex 0 0 0
      vertex 1.15224 2.23463 0
    endloop
  endfacet
  facet normal -0 0 -1
    outer loop
      vertex 1.15224 2.23463 0
      vertex 0 0 0
      vertex 1.08612 2.41943 0
    endloop
  endfacet
  facet normal -0 0 -1
    outer loop
      vertex 1.08612 2.41943 0
      vertex 0 0 0
      vertex 1.03844 2.60982 0
    endloop
  endfacet
  facet normal -0 0 -1
    outer loop
      vertex 1.03844 2.60982 0
      vertex 0 0 0
      vertex 1.00963 2.80397 0
    endloop
  endfacet
  facet normal 0 0 -1
    outer loop
      vertex 0 0 0
      vertex 0 10 0
      vertex 1 3 0
    endloop
  endfacet
  facet normal 0 0 -1
    outer loop
      vertex 1 3 0
      vertex 0 10 0
      vertex 1 10 0
    endloop
  endfacet
  facet normal -0 0 -1
    outer loop
      vertex 1.00963 2.80397 0
      vertex 0 0 0
      vertex 1 3 0
    endloop
  endfacet
  facet normal 0 0 1
    outer loop
      vertex 2.80397 1.00963 25
      vertex 0 0 25
      vertex 3 1 25
    endloop
  endfacet
  facet normal 0 -0 1
    outer loop
      vertex 25 0 25
      vertex 25 1 25
      vertex 3 1 25
    endloop
  endfacet
  facet normal 0 0 1
    outer loop
      vertex 2.60982 1.03844 25
      vertex 0 0 25
      vertex 2.80397 1.00963 25
    endloop
  endfacet
  facet normal 0 0 1
    outer loop
      vertex 0 0 25
      vertex 25 0 25
      vertex 3 1 25
    endloop
  endfacet
  facet normal 0 0 1
    outer loop
      vertex 2.41943 1.08612 25
      vertex 0 0 25
      vertex 2.60982 1.03844 25
    endloop
  endfacet
  facet normal 0 0 1
    outer loop
      vertex 2.23463 1.15224 25
      vertex 0 0 25
      vertex 2.41943 1.08612 25
    endloop
  endfacet
  facet normal 0 0 1
    outer loop
      vertex 2.05721 1.23616 25
      vertex 0 0 25
      vertex 2.23463 1.15224 25
    endloop
  endfacet
  facet normal 0 0 1
    outer loop
      vertex 1.88885 1.33707 25
      vertex 0 0 25
      vertex 2.05721 1.23616 25
    endloop
  endfacet
  facet normal 0 0 1
    outer loop
      vertex 1.73122 1.45398 25
      vertex 0 0 25
      vertex 1.88885 1.33707 25
    endloop
  endfacet
  facet normal 0 0 1
    outer loop
      vertex 1.58578 1.58578 25
      vertex 0 0 25
      vertex 1.73122 1.45398 25
    endloop
  endfacet
  facet normal 0 0 1
    outer loop
      vertex 1.45398 1.73122 25
      vertex 0 0 25
      vertex 1.58578 1.58578 25
    endloop
  endfacet
  facet normal 0 0 1
    outer loop
      vertex 1.33707 1.88885 25
      vertex 0 0 25
      vertex 1.45398 1.73122 25
    endloop
  endfacet
  facet normal 0 0 1
    outer loop
      vertex 1.23616 2.05721 25
      vertex 0 0 25
      vertex 1.33707 1.88885 25
    endloop
  endfacet
  facet normal 0 0 1
    outer loop
      vertex 1.15224 2.23463 25
      vertex 0 0 25
      vertex 1.23616 2.05721 25
    endloop
  endfacet
  facet normal 0 0 1
    outer loop
      vertex 1.08612 2.41943 25
      vertex 0 0 25
      vertex 1.15224 2.23463 25
    endloop
  endfacet
  facet normal 0 0 1
    outer loop
      vertex 1.03844 2.60982 25
      vertex 0 0 25
      vertex 1.08612 2.41943 25
    endloop
  endfacet
  facet normal 0 0 1
    outer loop
      vertex 1.00963 2.80397 25
      vertex 0 0 25
      vertex 1.03844 2.60982 25
    endloop
  endfacet
  facet normal 0 0 1
    outer loop
      vertex 1 3 25
      vertex 0 10 25
      vertex 0 0 25
    endloop
  endfacet
  facet normal 0 0 1
    outer loop
      vertex 1 10 25
      vertex 0 10 25
      vertex 1 3 25
    endloop
  endfacet
  facet normal 0 0 1
    outer loop
      vertex 1 3 25
      vertex 0 0 25
      vertex 1.00963 2.80397 25
    endloop
  endfacet
  facet normal 0 1 0
    outer loop
      vertex 3 1 0
      vertex 25 1 25
      vertex 25 1 0
    endloop
  endfacet
  facet normal 0 1 0
    outer loop
      vertex 3 1 0
      vertex 3 1 25
      vertex 25 1 25
    endloop
  endfacet
  facet normal 0.0490574 0.998796 0
    outer loop
      vertex 2.80397 1.00963 0
      vertex 3 1 25
      vertex 3 1 0
    endloop
  endfacet
  facet normal 0.0490574 0.998796 -0
    outer loop
      vertex 2.80397 1.00963 0
      vertex 2.80397 1.00963 25
      vertex 3 1 25
    endloop
  endfacet
  facet normal 0.146774 0.98917 0
    outer loop
      vertex 2.60982 1.03844 0
      vertex 2.80397 1.00963 25
      vertex 2.80397 1.00963 0
    endloop
  endfacet
  facet normal 0.146774 0.98917 -0
    outer loop
      vertex 2.60982 1.03844 0
      vertex 2.60982 1.03844 25
      vertex 2.80397 1.00963 25
    endloop
  endfacet
  facet normal 0.242956 0.970037 0
    outer loop
      vertex 2.41943 1.08612 0
      vertex 2.60982 1.03844 25
      vertex 2.60982 1.03844 0
    endloop
  endfacet
  facet normal 0.242956 0.970037 -0
    outer loop
      vertex 2.41943 1.08612 0
      vertex 2.41943 1.08612 25
      vertex 2.60982 1.03844 25
    endloop
  endfacet
  facet normal 0.336863 0.941554 0
    outer loop
      vertex 2.23463 1.15224 0
      vertex 2.41943 1.08612 25
      vertex 2.41943 1.08612 0
    endloop
  endfacet
  facet normal 0.336863 0.941554 -0
    outer loop
      vertex 2.23463 1.15224 0
      vertex 2.23463 1.15224 25
      vertex 2.41943 1.08612 25
    endloop
  endfacet
  facet normal 0.427578 0.903978 0
    outer loop
      vertex 2.05721 1.23616 0
      vertex 2.23463 1.15224 25
      vertex 2.23463 1.15224 0
    endloop
  endfacet
  facet normal 0.427578 0.903978 -0
    outer loop
      vertex 2.05721 1.23616 0
      vertex 2.05721 1.23616 25
      vertex 2.23463 1.15224 25
    endloop
  endfacet
  facet normal 0.514107 0.857726 0
    outer loop
      vertex 1.88885 1.33707 0
      vertex 2.05721 1.23616 25
      vertex 2.05721 1.23616 0
    endloop
  endfacet
  facet normal 0.514107 0.857726 -0
    outer loop
      vertex 1.88885 1.33707 0
      vertex 1.88885 1.33707 25
      vertex 2.05721 1.23616 25
    endloop
  endfacet
  facet normal 0.5957 0.803207 0
    outer loop
      vertex 1.73122 1.45398 0
      vertex 1.88885 1.33707 25
      vertex 1.88885 1.33707 0
    endloop
  endfacet
  facet normal 0.5957 0.803207 -0
    outer loop
      vertex 1.73122 1.45398 0
      vertex 1.73122 1.45398 25
      vertex 1.88885 1.33707 25
    endloop
  endfacet
  facet normal 0.671542 0.740966 0
    outer loop
      vertex 1.58578 1.58578 0
      vertex 1.73122 1.45398 25
      vertex 1.73122 1.45398 0
    endloop
  endfacet
  facet normal 0.671542 0.740966 -0
    outer loop
      vertex 1.58578 1.58578 0
      vertex 1.58578 1.58578 25
      vertex 1.73122 1.45398 25
    endloop
  endfacet
  facet normal 0.740966 0.671542 0
    outer loop
      vertex 1.45398 1.73122 0
      vertex 1.58578 1.58578 25
      vertex 1.58578 1.58578 0
    endloop
  endfacet
  facet normal 0.740966 0.671542 -0
    outer loop
      vertex 1.45398 1.73122 0
      vertex 1.45398 1.73122 25
      vertex 1.58578 1.58578 25
    endloop
  endfacet
  facet normal 0.803207 0.5957 0
    outer loop
      vertex 1.33707 1.88885 0
      vertex 1.45398 1.73122 25
      vertex 1.45398 1.73122 0
    endloop
  endfacet
  facet normal 0.803207 0.5957 -0
    outer loop
      vertex 1.33707 1.88885 0
      vertex 1.33707 1.88885 25
      vertex 1.45398 1.73122 25
    endloop
  endfacet
  facet normal 0.857726 0.514107 0
    outer loop
      vertex 1.23616 2.05721 0
      vertex 1.33707 1.88885 25
      vertex 1.33707 1.88885 0
    endloop
  endfacet
  facet normal 0.857726 0.514107 -0
    outer loop
      vertex 1.23616 2.05721 0
      vertex 1.23616 2.05721 25
      vertex 1.33707 1.88885 25
    endloop
  endfacet
  facet normal 0.903978 0.427578 0
    outer loop
      vertex 1.15224 2.23463 0
      vertex 1.23616 2.05721 25
      vertex 1.23616 2.05721 0
    endloop
  endfacet
  facet normal 0.903978 0.427578 -0
    outer loop
      vertex 1.15224 2.23463 0
      vertex 1.15224 2.23463 25
      vertex 1.23616 2.05721 25
    endloop
  endfacet
  facet normal 0.941554 0.336863 0
    outer loop
      vertex 1.08612 2.41943 0
      vertex 1.15224 2.23463 25
      vertex 1.15224 2.23463 0
    endloop
  endfacet
  facet normal 0.941554 0.336863 -0
    outer loop
      vertex 1.08612 2.41943 0
      vertex 1.08612 2.41943 25
      vertex 1.15224 2.23463 25
    endloop
  endfacet
  facet normal 0.970037 0.242956 0
    outer loop
      vertex 1.03844 2.60982 0
      vertex 1.08612 2.41943 25
      vertex 1.08612 2.41943 0
    endloop
  endfacet
  facet normal 0.970037 0.242956 -0
    outer loop
      vertex 1.03844 2.60982 0
      vertex 1.03844 2.60982 25
      vertex 1.08612 2.41943 25
    endloop
  endfacet
  facet normal 0.98917 0.146774 0
    outer loop
      vertex 1.00963 2.80397 0
      vertex 1.03844 2.60982 25
      vertex 1.03844 2.60982 0
    endloop
  endfacet
  facet normal 0.98917 0.146774 -0
    outer loop
      vertex 1.00963 2.80397 0
      vertex 1.00963 2.80397 25
      vertex 1.03844 2.60982 25
    endloop
  endfacet
  facet normal 0.998796 0.0490574 0
    outer loop
      vertex 1 3 0
      vertex 1.00963 2.80397 25
      vertex 1.00963 2.80397 0
    endloop
  endfacet
  facet normal 0.998796 0.0490574 -0
    outer loop
      vertex 1 3 0
      vertex 1 3 25
      vertex 1.00963 2.80397 25
    endloop
  endfacet
  facet normal 1 0 0
    outer loop
      vertex 1 10 0
      vertex 1 3 25
      vertex 1 3 0
    endloop
  endfacet
  facet normal 1 0 -0
    outer loop
      vertex 1 10 0
      vertex 1 10 25
      vertex 1 3 25
    endloop
  endfacet
  facet normal 0 1 0
    outer loop
      vertex 0 10 0
      vertex 1 10 25
      vertex 1 10 0
    endloop
  endfacet
  facet normal 0 1 0
    outer loop
      vertex 0 10 0
      vertex 0 10 25
      vertex 1 10 25
    endloop
  endfacet
  facet normal -1 0 0
    outer loop
      vertex 0 0 0
      vertex 0 10 25
      vertex 0 10 0
    endloop
  endfacet
  facet normal -1 0 0
    outer loop
      vertex 0 0 0
      vertex 0 0 25
      vertex 0 10 25
    endloop
  endfacet
  facet normal 0 -1 0
    outer loop
      vertex 25 0 0
      vertex 0 0 25
      vertex 0 0 0
    endloop
  endfacet
  facet normal 0 -1 0
    outer loop
      vertex 25 0 0
      vertex 25 0 25
      vertex 0 0 25
    endloop
  endfacet
  facet normal 1 0 0
    outer loop
      vertex 25 1 0
      vertex 25 0 25
      vertex 25 0 0
    endloop
  endfacet
  facet normal 1 0 -0
    outer loop
      vertex 25 1 0
      vertex 25 1 25
      vertex 25 0 25
    endloop
  endfacet
endsolid OpenSCAD_Model
